<svg id="Capa_1" data-name="Capa 1" xmlns="http://www.w3.org/2000/svg" viewBox="0 0 500 500">
  <defs>
    <style>
      .cls-1 {
        fill: #fff;
      }
    </style>
  </defs>
  <title>rand</title>
  <g>
    <path d="M248.08,8c9.78,3.84,19.14,6.44,27.38,10.91q85.2,46.33,170,93.37c22.47,12.46,22.69,19.36.76,31.57C389,175.68,331.56,207,274.31,238.7c-18.6,10.29-36.51,9.56-54.92-.67-56.49-31.41-113.25-62.35-169.73-93.77C27.26,131.8,27.1,124.82,49,112.69Q134.8,65.08,221.09,18.25C229.29,13.8,238.76,11.47,248.08,8Z"/>
    <path d="M478.86,267.22c0,26.14-.41,52.3.12,78.44.45,22.13-8.59,37.84-29.29,48.93C395.5,423.62,342,453.74,288,483.12c-23,12.51-29.54,8.67-29.66-17.31-.24-53.83.27-107.67-.23-161.49-.21-22.2,8.72-37.91,29.28-49C340.8,226.61,393.71,197,447,167.94c25.83-14.1,31.61-10.7,31.85,18.53C479,213.38,478.86,240.3,478.86,267.22ZM349.73,359.58"/>
    <path d="M237.47,383.75c0,27.68.26,55.36-.07,83-.29,24.37-7.18,28.61-28.44,17-55.39-30.11-110.44-60.78-165.79-91C25.24,383.08,17,368.76,17,349.33c.14-56.12-.27-112.25.21-168.38.19-22.67,7-26.15,28.21-14.66,55.43,30.05,110.48,60.72,165.83,90.89,17.93,9.77,26.25,24.2,26.2,43.53C237.42,328.39,237.47,356.07,237.47,383.75Z"/>
    <g>
      <ellipse class="cls-1" cx="372" cy="392.75" rx="25.73" ry="15.54" transform="translate(-166.39 445.47) rotate(-52.15)"/>
      <path class="cls-1" d="M372,242.09c-28.67,14.61-52,49.82-52,78.49v5l40-20.38v-5c0-6.62,5.38-14.74,12-18.11s12-.74,12,5.88c0,3.53-1.55,7.65-4.25,11.32L352,337v35.91l40-20.38V335.14l13.66-18.57c11.65-15.84,18.34-33.7,18.34-49C424,238.92,400.67,227.48,372,242.09Z"/>
    </g>
    <g>
      <ellipse class="cls-1" cx="117" cy="390.75" rx="11.71" ry="30.22" transform="translate(-171.91 102.81) rotate(-28.43)"/>
      <path class="cls-1" d="M117,240.09c-25.36-26.34-46-24.45-46,4.23v5l35.38,36.74v-5c0-6.61,4.77-7.05,10.62-1s10.62,16.4,10.62,23c0,3.53-1.37,5.44-3.76,5.26l-24.55-1.9v35.91l35.38,36.75V361.71l12.08.93c10.32.8,16.23-7.5,16.23-22.79C163,311.18,142.36,266.43,117,240.09Z"/>
    </g>
    <g>
      <ellipse class="cls-1" cx="304.1" cy="170.87" rx="28.72" ry="19.42" transform="translate(-35.45 250.76) rotate(-42.57)"/>
      <path class="cls-1" d="M190.5,77.47c-28.4,29.67-33.92,68.27-12.3,86l3.77,3.1,39.62-41.39-3.77-3.1c-5-4.1-3.71-13,2.84-19.85s15.94-9.08,20.93-5c2.66,2.19,3.65,5.86,2.7,10.07l-9.7,43.35L261.67,173l39.62-41.39-13.13-10.8,4.77-21.33c4.08-18.2-.19-34.07-11.72-43.55C259.6,38.13,218.9,47.8,190.5,77.47Z"/>
    </g>
  </g>
</svg>
